# xmcd
#
# Track frame offsets:
#	183
#	27535
#	48530
#	67998
#	94470
#	115960
#	138458
#	172038
#
# Disc length: 2538 seconds
#
# Revision: 0
# Processed by: cddbd v1.5.2PL0 Copyright (c) Steve Scherf et al.
# Submitted via: audiograbber 1.83.01
#
DISCID=7609e808
DTITLE=Deep Purple - Burn
DYEAR=1974
DGENRE=Hard Rock
TTITLE0=Burn
TTITLE1=Might Just Take Your Life
TTITLE2=Lay Down, Stay Down
TTITLE3=Sail Away
TTITLE4=You Fool No One
TTITLE5=What's Goin' On Here
TTITLE6=Mistreated
TTITLE7="A" 200
EXTD=
EXTT0=
EXTT1=
EXTT2=
EXTT3=
EXTT4=
EXTT5=
EXTT6=
EXTT7=
PLAYORDER=
